<mxfile host="app.diagrams.net" agent="Mozilla/5.0 (X11; Linux x86_64) AppleWebKit/537.36 (KHTML, like Gecko) Chrome/138.0.0.0 Safari/537.36" version="28.1.0">
  <diagram name="Page-1" id="cOFNGQsPDecjQeobC6Qt">
    <mxGraphModel dx="2038" dy="693" grid="1" gridSize="10" guides="1" tooltips="1" connect="1" arrows="1" fold="1" page="1" pageScale="1" pageWidth="850" pageHeight="1100" math="0" shadow="0">
      <root>
        <mxCell id="0" />
        <mxCell id="1" parent="0" />
        <mxCell id="jFEHCBm6yineqvt12b8z-1" value="" style="rounded=0;whiteSpace=wrap;html=1;fillColor=none;" parent="1" vertex="1">
          <mxGeometry x="15" y="190" width="820" height="60" as="geometry" />
        </mxCell>
        <mxCell id="jFEHCBm6yineqvt12b8z-2" value="&lt;font style=&quot;font-size: 35px;&quot;&gt;12&lt;/font&gt;" style="rounded=0;whiteSpace=wrap;html=1;fillColor=none;" parent="1" vertex="1">
          <mxGeometry x="282" y="190" width="100" height="60" as="geometry" />
        </mxCell>
        <mxCell id="jFEHCBm6yineqvt12b8z-4" value="" style="endArrow=none;html=1;rounded=0;entryX=0;entryY=0;entryDx=0;entryDy=0;" parent="1" edge="1">
          <mxGeometry width="50" height="50" relative="1" as="geometry">
            <mxPoint x="282" y="270" as="sourcePoint" />
            <mxPoint x="282" y="190" as="targetPoint" />
          </mxGeometry>
        </mxCell>
        <mxCell id="jFEHCBm6yineqvt12b8z-5" value="" style="rounded=0;whiteSpace=wrap;html=1;fillColor=none;" parent="1" vertex="1">
          <mxGeometry x="15" y="160" width="820" height="30" as="geometry" />
        </mxCell>
        <mxCell id="jFEHCBm6yineqvt12b8z-6" value="&lt;font style=&quot;font-size: 24px;&quot;&gt;arr[0]&lt;/font&gt;" style="rounded=0;whiteSpace=wrap;html=1;fillColor=none;" parent="1" vertex="1">
          <mxGeometry x="282" y="160" width="100" height="30" as="geometry" />
        </mxCell>
        <mxCell id="jFEHCBm6yineqvt12b8z-9" value="&lt;font style=&quot;font-size: 24px;&quot; face=&quot;monospace&quot;&gt;int arr[]&lt;/font&gt;" style="text;whiteSpace=wrap;html=1;align=center;" parent="1" vertex="1">
          <mxGeometry x="197" y="265" width="170" height="50" as="geometry" />
        </mxCell>
        <mxCell id="064zQ270YYYqrON_LxUA-3" value="&lt;font style=&quot;font-size: 35px;&quot;&gt;3&lt;/font&gt;" style="rounded=0;whiteSpace=wrap;html=1;fillColor=none;" parent="1" vertex="1">
          <mxGeometry x="382" y="190" width="100" height="60" as="geometry" />
        </mxCell>
        <mxCell id="064zQ270YYYqrON_LxUA-4" value="&lt;span style=&quot;font-size: 35px;&quot;&gt;9&lt;/span&gt;" style="rounded=0;whiteSpace=wrap;html=1;fillColor=none;" parent="1" vertex="1">
          <mxGeometry x="482" y="190" width="100" height="60" as="geometry" />
        </mxCell>
        <mxCell id="064zQ270YYYqrON_LxUA-5" value="&lt;font style=&quot;font-size: 35px;&quot;&gt;34&lt;/font&gt;" style="rounded=0;whiteSpace=wrap;html=1;fillColor=none;" parent="1" vertex="1">
          <mxGeometry x="582" y="190" width="100" height="60" as="geometry" />
        </mxCell>
        <mxCell id="064zQ270YYYqrON_LxUA-6" value="&lt;font style=&quot;font-size: 24px;&quot;&gt;arr[1]&lt;/font&gt;" style="rounded=0;whiteSpace=wrap;html=1;fillColor=none;" parent="1" vertex="1">
          <mxGeometry x="382" y="160" width="100" height="30" as="geometry" />
        </mxCell>
        <mxCell id="064zQ270YYYqrON_LxUA-7" value="&lt;font style=&quot;font-size: 24px;&quot;&gt;arr[2]&lt;/font&gt;" style="rounded=0;whiteSpace=wrap;html=1;fillColor=none;" parent="1" vertex="1">
          <mxGeometry x="482" y="160" width="100" height="30" as="geometry" />
        </mxCell>
        <mxCell id="064zQ270YYYqrON_LxUA-8" value="&lt;font style=&quot;font-size: 24px;&quot;&gt;arr[3]&lt;/font&gt;" style="rounded=0;whiteSpace=wrap;html=1;fillColor=none;" parent="1" vertex="1">
          <mxGeometry x="582" y="160" width="100" height="30" as="geometry" />
        </mxCell>
        <mxCell id="VR_lKxaKCH7XhtvPpPSS-1" value="" style="rounded=0;whiteSpace=wrap;html=1;fillColor=none;" vertex="1" parent="1">
          <mxGeometry x="15" y="414.5" width="820" height="60" as="geometry" />
        </mxCell>
        <mxCell id="VR_lKxaKCH7XhtvPpPSS-2" value="&lt;font style=&quot;font-size: 35px;&quot;&gt;34&lt;/font&gt;" style="rounded=0;whiteSpace=wrap;html=1;fillColor=none;" vertex="1" parent="1">
          <mxGeometry x="282" y="414.5" width="100" height="60" as="geometry" />
        </mxCell>
        <mxCell id="VR_lKxaKCH7XhtvPpPSS-3" value="" style="endArrow=none;html=1;rounded=0;entryX=0;entryY=0;entryDx=0;entryDy=0;" edge="1" parent="1">
          <mxGeometry width="50" height="50" relative="1" as="geometry">
            <mxPoint x="282" y="494.5" as="sourcePoint" />
            <mxPoint x="282" y="414.5" as="targetPoint" />
          </mxGeometry>
        </mxCell>
        <mxCell id="VR_lKxaKCH7XhtvPpPSS-4" value="" style="rounded=0;whiteSpace=wrap;html=1;fillColor=none;" vertex="1" parent="1">
          <mxGeometry x="15" y="384.5" width="820" height="30" as="geometry" />
        </mxCell>
        <mxCell id="VR_lKxaKCH7XhtvPpPSS-5" value="&lt;font style=&quot;font-size: 24px;&quot;&gt;val&lt;/font&gt;" style="rounded=0;whiteSpace=wrap;html=1;fillColor=none;" vertex="1" parent="1">
          <mxGeometry x="282" y="384.5" width="100" height="30" as="geometry" />
        </mxCell>
        <mxCell id="VR_lKxaKCH7XhtvPpPSS-9" value="&lt;font style=&quot;font-size: 22px;&quot;&gt;140725297195720&lt;/font&gt;" style="rounded=0;whiteSpace=wrap;html=1;fillColor=none;" vertex="1" parent="1">
          <mxGeometry x="425" y="414.5" width="225" height="60" as="geometry" />
        </mxCell>
        <mxCell id="VR_lKxaKCH7XhtvPpPSS-12" value="&lt;font style=&quot;font-size: 24px;&quot;&gt;pointer_to_val&lt;/font&gt;" style="rounded=0;whiteSpace=wrap;html=1;fillColor=none;" vertex="1" parent="1">
          <mxGeometry x="425" y="384.5" width="225" height="30" as="geometry" />
        </mxCell>
        <mxCell id="VR_lKxaKCH7XhtvPpPSS-13" value="&lt;span style=&quot;color: rgb(0, 0, 0); font-family: Helvetica; font-size: 22px; font-style: normal; font-variant-ligatures: normal; font-variant-caps: normal; font-weight: 400; letter-spacing: normal; orphans: 2; text-align: center; text-indent: 0px; text-transform: none; widows: 2; word-spacing: 0px; -webkit-text-stroke-width: 0px; white-space: normal; text-decoration-thickness: initial; text-decoration-style: initial; text-decoration-color: initial; float: none; display: inline !important;&quot;&gt;140725297195720&lt;br&gt;&amp;nbsp;(0x7ffd2959aac8)&lt;/span&gt;" style="text;whiteSpace=wrap;html=1;fillColor=none;" vertex="1" parent="1">
          <mxGeometry x="187" y="499" width="193" height="71" as="geometry" />
        </mxCell>
        <mxCell id="VR_lKxaKCH7XhtvPpPSS-24" value="" style="endArrow=none;html=1;rounded=0;entryX=0;entryY=0;entryDx=0;entryDy=0;" edge="1" parent="1">
          <mxGeometry width="50" height="50" relative="1" as="geometry">
            <mxPoint x="40" y="737" as="sourcePoint" />
            <mxPoint x="40" y="657" as="targetPoint" />
          </mxGeometry>
        </mxCell>
        <mxCell id="VR_lKxaKCH7XhtvPpPSS-25" value="" style="rounded=0;whiteSpace=wrap;html=1;fillColor=none;" vertex="1" parent="1">
          <mxGeometry x="15" y="627" width="820" height="30" as="geometry" />
        </mxCell>
        <mxCell id="VR_lKxaKCH7XhtvPpPSS-26" value="&lt;font style=&quot;font-size: 24px;&quot;&gt;s[0]&lt;/font&gt;" style="rounded=0;whiteSpace=wrap;html=1;fillColor=none;" vertex="1" parent="1">
          <mxGeometry x="40" y="627" width="70" height="30" as="geometry" />
        </mxCell>
        <mxCell id="VR_lKxaKCH7XhtvPpPSS-42" value="" style="rounded=0;whiteSpace=wrap;html=1;fillColor=none;" vertex="1" parent="1">
          <mxGeometry x="15" y="657" width="820" height="30" as="geometry" />
        </mxCell>
        <mxCell id="VR_lKxaKCH7XhtvPpPSS-43" value="" style="rounded=0;whiteSpace=wrap;html=1;fillColor=none;" vertex="1" parent="1">
          <mxGeometry x="15" y="687" width="820" height="30" as="geometry" />
        </mxCell>
        <mxCell id="VR_lKxaKCH7XhtvPpPSS-44" value="&lt;span style=&quot;font-size: 24px;&quot;&gt;&#39;E&#39;&lt;/span&gt;" style="rounded=0;whiteSpace=wrap;html=1;fillColor=none;" vertex="1" parent="1">
          <mxGeometry x="40" y="657" width="70" height="30" as="geometry" />
        </mxCell>
        <mxCell id="VR_lKxaKCH7XhtvPpPSS-45" value="&lt;span style=&quot;font-size: 24px;&quot;&gt;69&lt;/span&gt;" style="rounded=0;whiteSpace=wrap;html=1;fillColor=none;" vertex="1" parent="1">
          <mxGeometry x="40" y="687" width="70" height="30" as="geometry" />
        </mxCell>
        <mxCell id="VR_lKxaKCH7XhtvPpPSS-46" value="&lt;font style=&quot;font-size: 24px;&quot;&gt;s[1]&lt;/font&gt;" style="rounded=0;whiteSpace=wrap;html=1;fillColor=none;" vertex="1" parent="1">
          <mxGeometry x="110" y="627" width="70" height="30" as="geometry" />
        </mxCell>
        <mxCell id="VR_lKxaKCH7XhtvPpPSS-47" value="&lt;span style=&quot;font-size: 24px;&quot;&gt;&#39;x&#39;&lt;/span&gt;" style="rounded=0;whiteSpace=wrap;html=1;fillColor=none;" vertex="1" parent="1">
          <mxGeometry x="110" y="657" width="70" height="30" as="geometry" />
        </mxCell>
        <mxCell id="VR_lKxaKCH7XhtvPpPSS-48" value="&lt;span style=&quot;font-size: 24px;&quot;&gt;120&lt;/span&gt;" style="rounded=0;whiteSpace=wrap;html=1;fillColor=none;" vertex="1" parent="1">
          <mxGeometry x="110" y="687" width="70" height="30" as="geometry" />
        </mxCell>
        <mxCell id="VR_lKxaKCH7XhtvPpPSS-49" value="&lt;font style=&quot;font-size: 24px;&quot;&gt;s[2]&lt;/font&gt;" style="rounded=0;whiteSpace=wrap;html=1;fillColor=none;" vertex="1" parent="1">
          <mxGeometry x="180" y="627" width="70" height="30" as="geometry" />
        </mxCell>
        <mxCell id="VR_lKxaKCH7XhtvPpPSS-50" value="&lt;span style=&quot;font-size: 24px;&quot;&gt;&#39;a&#39;&lt;/span&gt;" style="rounded=0;whiteSpace=wrap;html=1;fillColor=none;" vertex="1" parent="1">
          <mxGeometry x="180" y="657" width="70" height="30" as="geometry" />
        </mxCell>
        <mxCell id="VR_lKxaKCH7XhtvPpPSS-51" value="&lt;span style=&quot;font-size: 24px;&quot;&gt;97&lt;/span&gt;" style="rounded=0;whiteSpace=wrap;html=1;fillColor=none;" vertex="1" parent="1">
          <mxGeometry x="180" y="687" width="70" height="30" as="geometry" />
        </mxCell>
        <mxCell id="VR_lKxaKCH7XhtvPpPSS-52" value="&lt;font style=&quot;font-size: 24px;&quot;&gt;s[3]&lt;/font&gt;" style="rounded=0;whiteSpace=wrap;html=1;fillColor=none;" vertex="1" parent="1">
          <mxGeometry x="250" y="627" width="70" height="30" as="geometry" />
        </mxCell>
        <mxCell id="VR_lKxaKCH7XhtvPpPSS-53" value="&lt;span style=&quot;font-size: 24px;&quot;&gt;&#39;m&#39;&lt;/span&gt;" style="rounded=0;whiteSpace=wrap;html=1;fillColor=none;" vertex="1" parent="1">
          <mxGeometry x="250" y="657" width="70" height="30" as="geometry" />
        </mxCell>
        <mxCell id="VR_lKxaKCH7XhtvPpPSS-54" value="&lt;span style=&quot;font-size: 24px;&quot;&gt;109&lt;/span&gt;" style="rounded=0;whiteSpace=wrap;html=1;fillColor=none;" vertex="1" parent="1">
          <mxGeometry x="250" y="687" width="70" height="30" as="geometry" />
        </mxCell>
        <mxCell id="VR_lKxaKCH7XhtvPpPSS-55" value="&lt;font style=&quot;font-size: 24px;&quot;&gt;s[4]&lt;/font&gt;" style="rounded=0;whiteSpace=wrap;html=1;fillColor=none;" vertex="1" parent="1">
          <mxGeometry x="320" y="627" width="70" height="30" as="geometry" />
        </mxCell>
        <mxCell id="VR_lKxaKCH7XhtvPpPSS-56" value="&lt;span style=&quot;font-size: 24px;&quot;&gt;&#39;p&#39;&lt;/span&gt;" style="rounded=0;whiteSpace=wrap;html=1;fillColor=none;" vertex="1" parent="1">
          <mxGeometry x="320" y="657" width="70" height="30" as="geometry" />
        </mxCell>
        <mxCell id="VR_lKxaKCH7XhtvPpPSS-57" value="&lt;span style=&quot;font-size: 24px;&quot;&gt;112&lt;/span&gt;" style="rounded=0;whiteSpace=wrap;html=1;fillColor=none;" vertex="1" parent="1">
          <mxGeometry x="320" y="687" width="70" height="30" as="geometry" />
        </mxCell>
        <mxCell id="VR_lKxaKCH7XhtvPpPSS-58" value="&lt;font style=&quot;font-size: 24px;&quot;&gt;s[5]&lt;/font&gt;" style="rounded=0;whiteSpace=wrap;html=1;fillColor=none;" vertex="1" parent="1">
          <mxGeometry x="390" y="627" width="70" height="30" as="geometry" />
        </mxCell>
        <mxCell id="VR_lKxaKCH7XhtvPpPSS-59" value="&lt;span style=&quot;font-size: 24px;&quot;&gt;&#39;l&#39;&lt;/span&gt;" style="rounded=0;whiteSpace=wrap;html=1;fillColor=none;" vertex="1" parent="1">
          <mxGeometry x="390" y="657" width="70" height="30" as="geometry" />
        </mxCell>
        <mxCell id="VR_lKxaKCH7XhtvPpPSS-60" value="&lt;span style=&quot;font-size: 24px;&quot;&gt;108&lt;/span&gt;" style="rounded=0;whiteSpace=wrap;html=1;fillColor=none;" vertex="1" parent="1">
          <mxGeometry x="390" y="687" width="70" height="30" as="geometry" />
        </mxCell>
        <mxCell id="VR_lKxaKCH7XhtvPpPSS-61" value="&lt;font style=&quot;font-size: 24px;&quot;&gt;s[6]&lt;/font&gt;" style="rounded=0;whiteSpace=wrap;html=1;fillColor=none;" vertex="1" parent="1">
          <mxGeometry x="460" y="627" width="70" height="30" as="geometry" />
        </mxCell>
        <mxCell id="VR_lKxaKCH7XhtvPpPSS-62" value="&lt;span style=&quot;font-size: 24px;&quot;&gt;&#39;e&#39;&lt;/span&gt;" style="rounded=0;whiteSpace=wrap;html=1;fillColor=none;" vertex="1" parent="1">
          <mxGeometry x="460" y="657" width="70" height="30" as="geometry" />
        </mxCell>
        <mxCell id="VR_lKxaKCH7XhtvPpPSS-63" value="&lt;span style=&quot;font-size: 24px;&quot;&gt;101&lt;/span&gt;" style="rounded=0;whiteSpace=wrap;html=1;fillColor=none;" vertex="1" parent="1">
          <mxGeometry x="460" y="687" width="70" height="30" as="geometry" />
        </mxCell>
        <mxCell id="VR_lKxaKCH7XhtvPpPSS-64" value="&lt;font style=&quot;font-size: 24px;&quot;&gt;s[7]&lt;/font&gt;" style="rounded=0;whiteSpace=wrap;html=1;fillColor=none;" vertex="1" parent="1">
          <mxGeometry x="530" y="627" width="70" height="30" as="geometry" />
        </mxCell>
        <mxCell id="VR_lKxaKCH7XhtvPpPSS-65" value="&lt;span style=&quot;font-size: 24px;&quot;&gt;&#39;\0&#39;&lt;/span&gt;" style="rounded=0;whiteSpace=wrap;html=1;fillColor=none;" vertex="1" parent="1">
          <mxGeometry x="530" y="657" width="70" height="30" as="geometry" />
        </mxCell>
        <mxCell id="VR_lKxaKCH7XhtvPpPSS-66" value="&lt;span style=&quot;font-size: 24px;&quot;&gt;0&lt;/span&gt;" style="rounded=0;whiteSpace=wrap;html=1;fillColor=none;" vertex="1" parent="1">
          <mxGeometry x="530" y="687" width="70" height="30" as="geometry" />
        </mxCell>
        <mxCell id="VR_lKxaKCH7XhtvPpPSS-67" value="&lt;font style=&quot;font-size: 19px;&quot; face=&quot;monospace&quot;&gt;char *s&lt;/font&gt;" style="text;whiteSpace=wrap;html=1;align=center;" vertex="1" parent="1">
          <mxGeometry x="-44" y="730" width="170" height="50" as="geometry" />
        </mxCell>
        <mxCell id="VR_lKxaKCH7XhtvPpPSS-68" value="" style="endArrow=none;html=1;rounded=0;entryX=0;entryY=0;entryDx=0;entryDy=0;" edge="1" parent="1">
          <mxGeometry width="50" height="50" relative="1" as="geometry">
            <mxPoint x="40" y="978" as="sourcePoint" />
            <mxPoint x="40" y="898" as="targetPoint" />
          </mxGeometry>
        </mxCell>
        <mxCell id="VR_lKxaKCH7XhtvPpPSS-71" value="" style="rounded=0;whiteSpace=wrap;html=1;fillColor=none;" vertex="1" parent="1">
          <mxGeometry x="15" y="898" width="820" height="30" as="geometry" />
        </mxCell>
        <mxCell id="VR_lKxaKCH7XhtvPpPSS-72" value="" style="rounded=0;whiteSpace=wrap;html=1;fillColor=none;" vertex="1" parent="1">
          <mxGeometry x="15" y="928" width="820" height="30" as="geometry" />
        </mxCell>
        <mxCell id="VR_lKxaKCH7XhtvPpPSS-73" value="&lt;span style=&quot;font-size: 24px;&quot;&gt;&#39;a&#39;&lt;/span&gt;" style="rounded=0;whiteSpace=wrap;html=1;fillColor=none;" vertex="1" parent="1">
          <mxGeometry x="40" y="898" width="70" height="30" as="geometry" />
        </mxCell>
        <mxCell id="VR_lKxaKCH7XhtvPpPSS-74" value="&lt;span style=&quot;font-size: 24px;&quot;&gt;97&lt;/span&gt;" style="rounded=0;whiteSpace=wrap;html=1;fillColor=none;" vertex="1" parent="1">
          <mxGeometry x="40" y="928" width="70" height="30" as="geometry" />
        </mxCell>
        <mxCell id="VR_lKxaKCH7XhtvPpPSS-76" value="&lt;span style=&quot;font-size: 24px;&quot;&gt;&#39;\0&#39;&lt;/span&gt;" style="rounded=0;whiteSpace=wrap;html=1;fillColor=none;" vertex="1" parent="1">
          <mxGeometry x="110" y="898" width="70" height="30" as="geometry" />
        </mxCell>
        <mxCell id="VR_lKxaKCH7XhtvPpPSS-77" value="&lt;span style=&quot;font-size: 24px;&quot;&gt;0&lt;/span&gt;" style="rounded=0;whiteSpace=wrap;html=1;fillColor=none;" vertex="1" parent="1">
          <mxGeometry x="110" y="928" width="70" height="30" as="geometry" />
        </mxCell>
        <mxCell id="VR_lKxaKCH7XhtvPpPSS-82" value="&lt;span style=&quot;font-size: 24px;&quot;&gt;&#39;b&#39;&lt;/span&gt;" style="rounded=0;whiteSpace=wrap;html=1;fillColor=none;" vertex="1" parent="1">
          <mxGeometry x="250" y="898" width="70" height="30" as="geometry" />
        </mxCell>
        <mxCell id="VR_lKxaKCH7XhtvPpPSS-83" value="&lt;span style=&quot;font-size: 24px;&quot;&gt;98&lt;/span&gt;" style="rounded=0;whiteSpace=wrap;html=1;fillColor=none;" vertex="1" parent="1">
          <mxGeometry x="250" y="928" width="70" height="30" as="geometry" />
        </mxCell>
        <mxCell id="VR_lKxaKCH7XhtvPpPSS-85" value="&lt;span style=&quot;font-size: 24px;&quot;&gt;&#39;b&#39;&lt;/span&gt;" style="rounded=0;whiteSpace=wrap;html=1;fillColor=none;" vertex="1" parent="1">
          <mxGeometry x="320" y="898" width="70" height="30" as="geometry" />
        </mxCell>
        <mxCell id="VR_lKxaKCH7XhtvPpPSS-86" value="&lt;span style=&quot;font-size: 24px;&quot;&gt;98&lt;/span&gt;" style="rounded=0;whiteSpace=wrap;html=1;fillColor=none;" vertex="1" parent="1">
          <mxGeometry x="320" y="928" width="70" height="30" as="geometry" />
        </mxCell>
        <mxCell id="VR_lKxaKCH7XhtvPpPSS-88" value="&lt;span style=&quot;font-size: 24px;&quot;&gt;&#39;\0&#39;&lt;/span&gt;" style="rounded=0;whiteSpace=wrap;html=1;fillColor=none;" vertex="1" parent="1">
          <mxGeometry x="390" y="898" width="70" height="30" as="geometry" />
        </mxCell>
        <mxCell id="VR_lKxaKCH7XhtvPpPSS-89" value="&lt;span style=&quot;font-size: 24px;&quot;&gt;0&lt;/span&gt;" style="rounded=0;whiteSpace=wrap;html=1;fillColor=none;" vertex="1" parent="1">
          <mxGeometry x="390" y="928" width="70" height="30" as="geometry" />
        </mxCell>
        <mxCell id="VR_lKxaKCH7XhtvPpPSS-94" value="&lt;span style=&quot;font-size: 24px;&quot;&gt;arr[0]&lt;/span&gt;" style="rounded=0;whiteSpace=wrap;html=1;fillColor=none;" vertex="1" parent="1">
          <mxGeometry x="530" y="898" width="70" height="30" as="geometry" />
        </mxCell>
        <mxCell id="VR_lKxaKCH7XhtvPpPSS-95" value="&lt;font style=&quot;font-size: 22px;&quot;&gt;addr1&lt;/font&gt;" style="rounded=0;whiteSpace=wrap;html=1;fillColor=none;" vertex="1" parent="1">
          <mxGeometry x="530" y="928" width="70" height="30" as="geometry" />
        </mxCell>
        <mxCell id="VR_lKxaKCH7XhtvPpPSS-96" value="&lt;font face=&quot;monospace&quot;&gt;&lt;span style=&quot;font-size: 19px;&quot;&gt;addr1&lt;/span&gt;&lt;/font&gt;" style="text;whiteSpace=wrap;html=1;align=center;" vertex="1" parent="1">
          <mxGeometry x="-44" y="974" width="170" height="50" as="geometry" />
        </mxCell>
        <mxCell id="VR_lKxaKCH7XhtvPpPSS-97" value="&lt;span style=&quot;font-size: 24px;&quot;&gt;arr[1]&lt;/span&gt;" style="rounded=0;whiteSpace=wrap;html=1;fillColor=none;" vertex="1" parent="1">
          <mxGeometry x="600" y="898" width="70" height="30" as="geometry" />
        </mxCell>
        <mxCell id="VR_lKxaKCH7XhtvPpPSS-98" value="&lt;font style=&quot;font-size: 22px;&quot;&gt;addr2&lt;/font&gt;" style="rounded=0;whiteSpace=wrap;html=1;fillColor=none;" vertex="1" parent="1">
          <mxGeometry x="600" y="928" width="70" height="30" as="geometry" />
        </mxCell>
        <mxCell id="VR_lKxaKCH7XhtvPpPSS-99" value="" style="endArrow=none;html=1;rounded=0;entryX=0;entryY=0;entryDx=0;entryDy=0;" edge="1" parent="1">
          <mxGeometry width="50" height="50" relative="1" as="geometry">
            <mxPoint x="250" y="978" as="sourcePoint" />
            <mxPoint x="250" y="898" as="targetPoint" />
          </mxGeometry>
        </mxCell>
        <mxCell id="VR_lKxaKCH7XhtvPpPSS-100" value="&lt;font face=&quot;monospace&quot;&gt;&lt;span style=&quot;font-size: 19px;&quot;&gt;addr2&lt;/span&gt;&lt;/font&gt;" style="text;whiteSpace=wrap;html=1;align=center;" vertex="1" parent="1">
          <mxGeometry x="166" y="974" width="170" height="50" as="geometry" />
        </mxCell>
        <mxCell id="VR_lKxaKCH7XhtvPpPSS-101" value="" style="endArrow=none;html=1;rounded=0;entryX=0;entryY=0;entryDx=0;entryDy=0;" edge="1" parent="1">
          <mxGeometry width="50" height="50" relative="1" as="geometry">
            <mxPoint x="530" y="978" as="sourcePoint" />
            <mxPoint x="530" y="898" as="targetPoint" />
          </mxGeometry>
        </mxCell>
        <mxCell id="VR_lKxaKCH7XhtvPpPSS-102" value="&lt;font face=&quot;monospace&quot;&gt;&lt;span style=&quot;font-size: 19px;&quot;&gt;arr&lt;/span&gt;&lt;/font&gt;" style="text;whiteSpace=wrap;html=1;align=center;" vertex="1" parent="1">
          <mxGeometry x="446" y="975" width="170" height="50" as="geometry" />
        </mxCell>
      </root>
    </mxGraphModel>
  </diagram>
</mxfile>
